<svg xmlns="http://www.w3.org/2000/svg" width="682.667" height="682.667" version="1.0" viewBox="0 0 512 512"><g fill="#6154D4"><path d="M236.5.6c-22.2 2.2-43 6.5-60.4 12.3C109.9 35.1 57.5 80.7 26.6 143c-12.3 24.9-19.8 48.9-24.3 78-2.1 14.2-2.5 52.8-.5 66.5 4.2 29.3 11.9 55 24.2 80.2l7.8 16.2-16.5 50.8c-18.5 56.7-19.2 60-14.4 67.6 3.2 5.1 8.7 8.6 14.7 9.3 5.5.6 1.2 1.9 68.7-19.9l41.9-13.5 14.9 7.3c39.2 19.2 79.6 27.8 122.4 26.1 37.3-1.4 70.9-10 104.4-26.7 26.5-13.2 47-28 67.3-48.5 21-21.3 35-40.8 47.7-66.5 27.6-55.6 34.2-116.8 19.1-176.9-8.6-34.5-27.4-71.8-49.5-98.5C413.1 44.4 358.3 13.2 294 2.9 282 1 246.7-.4 236.5.6m43.8 40.9c94.1 11 169 80.1 187.6 173 20.1 101-35.5 203.4-131.4 241.8-61.7 24.7-128.6 20.1-187.8-12.9-11.1-6.3-12.7-6.8-17.7-6.7-4.1 0-14.7 3.1-42.5 12.1-20.3 6.6-37.1 12-37.2 11.9s5.3-16.9 11.9-37.2c9-27.8 12.1-38.4 12.1-42.5.1-5-.4-6.6-6.7-17.7-18.2-32.7-26.8-63-28.3-99.8-2.4-59.5 20.5-117.6 63.1-160 36.7-36.6 81.2-57.3 134.6-62.8 9.2-1 30.8-.5 42.3.8"/><path d="M147.1 232.7c-8.8 3.1-16.1 13.6-16.1 23.3 0 6 3 13 7.5 17.5 9.8 9.8 25.2 9.8 35 0 18.8-18.8-1.2-49.7-26.4-40.8M247.1 232.7c-8.8 3.1-16.1 13.6-16.1 23.3 0 13.2 11.8 25 25 25 6 0 13-3 17.5-7.5 18.8-18.8-1.2-49.7-26.4-40.8M347.1 232.7c-8.8 3.1-16.1 13.6-16.1 23.3 0 13.2 11.8 25 25 25 6 0 13-3 17.5-7.5 18.8-18.8-1.2-49.7-26.4-40.8"/></g></svg>