<svg xmlns="http://www.w3.org/2000/svg" width="682.667" height="682.667" version="1.0" viewBox="0 0 512 512"><g fill="#6154D4"><path d="M248 1c-5.6 1-14.5 4.3-18.4 6.9-11.4 7.6-20 21.1-21.9 34.5-3.4 23.7 11.1 46.4 34.6 54 1.5.5 1.7 2 1.7 12.5v12l-66.7.3c-74.6.4-71.3.2-86.8 7.7-17.7 8.7-30.9 25.9-34.9 45.6l-1.3 6-8.2.7c-10.3.8-16.5 2.9-23.9 7.8-9.1 6.1-14.7 14.2-17.7 25.7-2.2 8.6-2.2 112.8.1 122.3 2.5 10.7 9 20 18.2 25.9 7.1 4.5 12.7 6.3 22.6 7l8.9.6 1.4 7c.8 3.8 3.3 10.8 5.5 15.5 7.5 15.6 24.3 29.7 41.4 34.7 5.1 1.5 12.4 1.8 52.8 2.2l47 .6 22.2 38.5c13 22.5 23.3 39.3 24.8 40.5 3.5 2.6 9.7 2.6 13.2 0 1.5-1.2 11.9-18.2 24.8-40.5l22.3-38.5 46.9-.6c52.1-.6 52.2-.6 65.9-7.7 10.7-5.5 23-18.2 28.3-29.2 2.2-4.7 4.7-11.7 5.5-15.5l1.4-7 8.9-.6c4.9-.4 10.9-1.4 13.4-2.3 14.3-5.3 24.7-17.5 27.9-32.4.7-3.5 1.1-23.6 1.1-60 0-45.4-.3-55.8-1.5-60.5-3-11.5-8.6-19.6-17.7-25.7-7.4-4.9-13.6-7-23.9-7.8l-8.2-.7-1.3-6c-4.1-20.2-17.2-37-35.9-46-4.9-2.4-11.2-4.9-14-5.6-3.6-.9-23.1-1.3-71.7-1.6l-66.8-.4v-12c0-10.5.2-12 1.8-12.5 16.7-5.5 29.3-18.8 33.7-35.9 6.8-26.6-12-55-39.6-59.5-7.2-1.1-9.4-1.1-15.9 0m161.5 147.9c13.4 6.6 22.3 18.8 24.5 33.6 1.3 9.4 1.3 177.6 0 186.9-2.7 18.6-17.5 33.6-36 36.6-3.8.6-25.8 1-52.3 1-37.3 0-46.3.3-48.5 1.4-2 1-7.7 10.1-21.7 34.5-10.4 18.2-19.2 33.1-19.5 33-.3 0-9-14.8-19.5-33-14-24.5-19.7-33.5-21.7-34.5-2.2-1.1-11.2-1.4-48.5-1.4-27.3 0-48.4-.4-52.3-1.1-18.6-3-33.3-17.9-36-36.6-1.2-8.5-1.3-177-.1-186.5 2.2-16.8 13.7-30.7 29.8-35.8 5.6-1.8 11.4-1.9 150.3-1.7l144.5.2z"/><path d="M148 208.9c-7.6 2.4-9.6 3.7-15.8 9.5-20.7 19.6-15.3 53.7 10.5 65.9 6.3 3 7.6 3.2 17.3 3.2s11-.2 17.3-3.2c16.4-7.8 26-25.8 22.8-43.1-1.3-6.9-5.5-16-9.4-20.4-10.7-11.8-28-16.6-42.7-11.9M339.6 208.9c-14.8 4.9-24.8 16.5-27.7 32.2-3.2 17.4 6.3 35.4 22.8 43.2 6.3 3 7.6 3.2 17.3 3.2s11-.2 17.3-3.2c26.2-12.4 31.2-46.7 9.7-66.6-7.5-7-14.6-9.8-25.5-10.3-6-.3-9.5.1-13.9 1.5M194.4 315.4c-2.9 2.9-3.4 4.1-3.4 7.9s.8 5.8 5 12.1c20.6 30.7 60.8 40.8 94 23.5 9.9-5.1 19.4-13.8 26-23.5 4.2-6.3 5-8.3 5-12.1s-.5-5-3.4-7.9c-2.8-2.8-4.2-3.4-7.6-3.4-5.8 0-7.4 1.1-12.6 9-9.8 14.9-24.3 23-41.4 23s-31.6-8.1-41.4-23c-5.2-7.9-6.8-9-12.6-9-3.4 0-4.8.6-7.6 3.4"/></g></svg>