<svg xmlns="http://www.w3.org/2000/svg" width="2821.333" height="2926.667" version="1.0" viewBox="0 0 2116 2195"><path d="M1675.7.7c-2.9 5.1-7.9 27-9.9 43.3-1.7 14.2-1.7 53.3 0 63 6.4 35.4 18.9 61.2 38.9 80.1 12.6 11.8 27.2 19.6 46 24.6 8.1 2.1 12.2 2.5 23.3 2.6 18.6.1 30.5-2.6 47-10.8 27.5-13.7 54.2-14.8 79.4-3.1 10.3 4.7 17.4 9.6 26.7 18.4 17.6 16.6 26.3 34.5 27.6 56.7.6 11.5-.9 27.8-3.3 34.8-1.8 5.2-6.7 10-12.2 11.8-2.8.9-3.6.8-5.3-.7-2.7-2.4-2.5-7.9.7-19.4 2.4-8.6 2.6-10.7 2.2-22.5-.4-10.8-1-14.4-3.3-21.4-9.4-27.8-34.1-45.3-66.1-46.8-21.2-1-37.4 4.5-51.2 17.2-17.8 16.5-25.5 36-25.6 65.2l-.1 14.3-41.7-41.7c-23-22.9-41.9-41.5-42.1-41.3-.2.3.6 16.8 1.7 36.8l2.1 36.2 94.5 94.5 94.5 94.5h70l-33.9-33.9-33.9-33.9 11.2 2.9c24.9 6.4 50.8 9.6 63.9 7.9 19.8-2.5 40.5-10.4 53.8-20.4 8-6 19.9-18.5 25.2-26.6 9.8-14.8 15.3-29.3 20.3-53 3-14.1 3.3-17 3.3-33-.1-14.1-.5-19.5-2.2-27.7-7.3-33.9-24.4-65.9-52.2-97.1-19.6-22.1-45.3-39.2-79.2-52.6-25-9.8-58.7-17.5-87.8-20.1-42.4-3.6-90.9-20.4-124-42.8-18.7-12.7-41.4-34.1-51.4-48.5-5.9-8.4-6.2-8.7-6.9-7.5M941.6 110.5c-72.9 14.7-136.1 61.3-181.7 134.1-8 12.9-20.1 35.8-23.9 45.4-2 5-2 5.3-.3 7.2s3.2 1.9 61.3 1.3c32.7-.4 61.1-1 63-1.4 3.5-.8 3.4-.8-8-6.3-17.6-8.6-34-13.3-55.5-15.8-4.9-.6-9.1-1.2-9.2-1.4-.2-.2 1.6-.8 3.9-1.5 8.2-2.4 26.4-10.3 38.6-16.6 47.4-24.7 87.3-63.8 114.8-112.6 5.8-10.3 15.4-31.2 15.4-33.7 0-1.7-4.7-1.4-18.4 1.3M1134 108.8c0 1.8 5.5 14.3 11.6 26.2 22.8 45 60.7 85.9 104 112.1 6.5 4 17.3 9.8 23.9 13 11.9 5.6 30.3 12.9 32.6 12.9 3.9 0-1.2 1-11.7 2.4-20.7 2.7-43.5 9.8-57.8 18l-6 3.4 6.5.6c3.5.3 31.7.8 62.5 1.2 58.2.6 60.4.5 60.4-3.4 0-2.4-9.8-23.2-17-35.9-16.1-28.4-34.5-52.8-56.5-74.9-23.3-23.4-44.5-38.9-71.6-52.3-22.8-11.4-44-18.4-67.9-22.6-9.6-1.7-13-1.9-13-.7"/><path d="M1313 134.6c0 4.4 9.9 34.6 16 48.9 26.9 63.1 69.2 111.9 125.5 144.8 5.5 3.2 8.9 5.6 7.5 5.3-14.3-3.1-39.8-4.3-57.5-2.7-15.4 1.4-28.7 3.9-44.2 8.2l-11.3 3.1V405h6c15.4 0 41.4-4.4 61.6-10.5 18-5.4 45.2-16.6 69.8-28.7 12.1-6 22.2-11.1 22.4-11.3.6-.5-4.5-18.5-8.4-29.7-27.9-80.7-80.3-143.5-145.9-174.9-15.4-7.4-41.5-17-41.5-15.3M766.5 144.4c-59.4 21.6-106.3 62.7-141.5 124-14.4 25.1-27.2 56.7-34.4 85.3-1.4 5.6-2.6 10.5-2.6 10.8 0 1.2 28.1 14.1 45 20.8 43.4 17.1 77.8 25.2 119.7 28.1l6.2.4.5-6.2c.3-3.3.7-17.2.9-30.8l.3-24.6-11-2.6c-24.5-5.8-41.9-7.6-72.1-7.6-19.8 0-38.3 1-45.5 2.5-1.4.3 1.6-1.8 6.5-4.8 58.1-34.4 100.8-86.2 127.3-154.7 4.2-10.9 9.1-26.9 11.6-37.8 1.7-7.5 1.9-7.5-10.9-2.8M132 159.4c-19.6 2.9-50.6 12.9-49.8 16.2.4 1.5 248.3 248.4 249.5 248.4.4 0 1.8-3.7 3.1-8.2 7.8-28 24.1-59.7 40.6-79.1l5.7-6.8-60.3-61.1c-33.2-33.6-64.7-65.3-70.2-70.5-20.3-19.3-43.7-31.9-69.4-37.3-12.7-2.7-36.2-3.4-49.2-1.6M60.5 198.1c-27.4 26.3-42.3 67.5-40.2 111.5 1.4 28.1 9.2 60 22 89.1l4.3 9.8 118.2.3c65 .1 118.2-.1 118.2-.5 0-.5-48.6-49.4-107.9-108.7L67.2 191.7zM1488.3 205.6c1.1 21.2 5.5 45.5 12.3 68.2 14.3 47.3 42.9 93.3 76.8 123.6l7.7 6.9 7.5-7.4c4.2-4.1 13.3-13.5 20.4-21l12.9-13.5-4.4-13c-23.3-69.2-64-118.8-123.2-150.1l-10.6-5.6z"/><path d="M594.5 210.1c-45 25.8-79 62.7-103.5 112.4-19.7 39.9-30.7 81.3-34.4 129.7l-.5 6.7 5.3 1.5c23.8 6.9 54.1 13.3 80.1 16.7 22.8 3.1 68.3 3.4 87 .6 24-3.6 45.3-9.7 61.7-17.6 8.7-4.2 19.8-11.1 19.8-12.2 0-.4-3.3-2.7-7.2-5.2C687 433 671 426.3 652 421.5c-30.8-7.8-69.9-8.5-109-1.9-11.8 2-37.9 8.1-46.5 10.9-1.9.6-1.9.6-.2-.8 57.7-47.3 94.4-113.9 106.2-193 2-13.3 3.1-31.7 1.9-31.7-.6 0-5 2.3-9.9 5.1M1039.1 212.5c-8.3 2.6-15 11.6-15.1 20.4-.1 17.7 17 28.4 32.8 20.5 13.5-6.7 16.1-24.5 5.3-35.4-6.6-6.6-13.9-8.3-23-5.5M1141.8 226.5c-4.8.8-14.3 2.8-21 4.6-12.6 3.2-33.8 10.6-33.8 11.8 0 1 22.6 13.6 33.5 18.7 12.2 5.7 30.1 11.7 43.1 14.6 12.1 2.6 40.1 3.2 49.9.9 7.3-1.6 21.3-6.7 23.8-8.5 1.8-1.4 1.7-1.6-.6-6.3-8.7-17-24.5-29.4-44.7-34.8-8.9-2.4-38.1-3-50.2-1M915.2 230.1c-27 3.5-46.3 16.4-57.4 38.3-2.9 5.7-2.9 6-1.2 7.3 3.8 2.8 20.3 7.2 30.7 8.3 18.9 1.9 41.8-1.6 63.4-9.6 18.2-6.7 56.9-28.2 54.7-30.4-1.6-1.5-23.3-7.9-35.3-10.4-20.6-4.3-39.4-5.5-54.9-3.5M1375 292.2c-6.1 3.2-8.3 6.6-8.7 13.5-.6 9.4 4.5 16.2 13.3 17.9 11.8 2.2 22.5-9.1 19.4-20.6-3-11-13.9-15.9-24-10.8"/><path d="M434.9 305.9c-45.1 37.6-75.1 90.3-87.9 154.1-5 24.9-6.4 40.6-6.4 70 0 21.9 1.3 42.2 2.7 43.6.8.8 20.4 2.5 41.4 3.6 25.1 1.2 53.8.2 76.3-2.8 42-5.5 81.1-18.7 107.5-36.2 9.8-6.5 22.8-17.9 22-19.2-.9-1.4-18.4-7.8-28.5-10.4-17.4-4.5-23.3-5.1-48.5-5.1-20.1.1-26.1.5-36.9 2.3-30.5 5.3-59 14.4-88.2 28.2l-12.1 5.7 8.5-10.6c38.1-47.4 59.2-104.6 63.2-171.9 1.3-21.7-.6-59.2-3-59.2-.4 0-4.9 3.5-10.1 7.9M709 300.1c-3.3 1.3-6.8 4.7-8.6 8.1-1.8 3.5-1.8 12.1.1 15.8 4.1 7.8 14.4 11 22.5 6.8 6.3-3.2 9-7.7 9-14.8 0-6.2-2.2-10.6-7.2-14.3-3.1-2.3-12-3.2-15.8-1.6M784.3 608.7c.3 270.5.4 292.7 2 303.8 9.7 66.8 31.5 115.7 68.6 153.9 20.1 20.6 38.4 33.9 64.6 46.7 47.9 23.4 104 32.5 166 26.8 62.6-5.8 117.4-29.5 156.9-67.8 40.6-39.6 64-89.3 73.8-157.2l2.2-15.4.3-291.3.3-291.2H784zM1163 454.5V512h83v81h-81v38h81v89h-81v269h-67.5l-48-48-48-48-43.7 43.7-43.8 43.8-31.2-31.3-31.3-31.2 72-72 72-72 37 37c20.4 20.4 37.3 37 37.8 37 .4 0 .7-83.7.7-186V476H913v-79h250zM1615.5 411.9c-43.4 47.3-79 86.6-79 87.3 0 .8 38.2 39.1 84.9 85.1l84.8 83.7 40.7-40c22.3-21.9 59.7-58.8 83.1-81.9l42.5-41.9-89-89.1-89-89.1zM1472 407.1c-19.6 2.5-40.3 8.5-56.5 16.4-11.4 5.5-26.5 14.9-26.5 16.5 0 1.7 12.8 10 22.1 14.5 10.9 5.1 26.2 9.6 41.5 12.2 8.9 1.5 16.5 1.8 41.8 1.8h30.9l25.3-26c14-14.3 25.4-26.3 25.4-26.6 0-1.3-31-7-48.2-8.9-11.2-1.2-46.3-1.1-55.8.1"/><path d="M294.9 427.7c-25.5 30.7-43.4 67.5-52.3 107.5-9.8 43.7-9.4 96 1 142.8 2.5 11.2 7.1 28.1 7.9 28.8.6.7 34.9-2.7 49.5-4.9 73.6-10.7 134.1-36.6 169.8-72.6 7.6-7.8 15.6-18.3 14.5-19.4-1.8-1.7-23.7-5.1-36.8-5.6-45.7-1.9-96.9 14.6-147.5 47.5-6.3 4.1-14.1 9.5-17.3 11.9l-5.9 4.6 3.2-5.4q28.65-49.2 36.6-110.4c2.3-18 2.4-55 0-74.5-2.9-24.4-11-60-13.6-60-.6 0-4.6 4.4-9.1 9.7M56 428.3c0 4.8 36.6 42.8 72.5 75.1 29.1 26.3 80.6 70.6 81.9 70.6.3 0 .6-4.9.6-10.9 0-35.7 17.6-83.8 46.1-126.3 3.3-4.8 5.9-9 5.9-9.3s-46.6-.5-103.5-.5c-83.8 0-103.5.2-103.5 1.3M439.6 468c-4.3 1.3-9.5 6.9-10.7 11.4-3.2 11.7 6 22.5 18.1 21.4 20-1.9 19.8-31.2-.1-33.3-2.4-.2-5.7 0-7.3.5M1478 529.8c-9.5 11.5-17.5 21.3-17.7 21.8s43.2 44.4 96.5 97.7l96.7 96.7 20-20 20-20-98.5-98.5c-54.2-54.2-98.7-98.5-99-98.5s-8.4 9.4-18 20.8M1911.2 546.6c-9 18-18.9 48.6-23.6 73.2-4.5 23.7-5.1 30.4-5.1 61.2 0 31.5.7 38.8 6.1 63 2.1 9.5 10.6 36.7 13.9 44.5.5 1.1-3.8-2.5-9.6-8-44.2-42.3-91.3-68.3-139.9-77.2-9.8-1.8-44.1-2.6-45.6-1.1-2.1 2.1 10.5 21.9 21.9 34.5 37.4 41.2 96.4 72.6 172.7 91.7 10 2.6 19 4.6 20.1 4.6 2.4 0 6.2-7.4 13.5-26.2 9.9-25.3 18.1-58 21.6-85.8 2-16.4 1.7-58.5-.6-74.5-2.2-16.1-7.5-37.5-12.8-52-4.9-13.5-16-36.1-23.2-47.4l-5.4-8.4zM583.4 551.1c-10.6 11.2-36.7 23.9-63.2 30.5-6.1 1.6-11.1 3.2-11 3.6.5 1.3 77 71.8 77.9 71.8.5 0 .9-24.5.9-54.5s-.4-54.5-.8-54.5c-.5 0-2.1 1.4-3.8 3.1"/><path d="M1835.5 577.5c-16 15.3-29.6 28.3-30.3 29-1.2 1-.4 3.4 4.6 13.6 3.3 6.8 8.3 16.1 11 20.6 4.9 8.2 5.4 9.7 2.3 6.9-5.1-4.5-34.2-22.6-36.3-22.6-1.4 0-47.6 44.3-47.4 45.4 1 4.7 81.9 17.6 110.2 17.6h4.2l3-12.3c7.9-31.4 10.6-56.9 9.9-93.2-.3-14.9-.9-28.3-1.4-29.8-.8-2.8-1.2-2.5-29.8 24.8M609 624.8v56.8l72.2 70.9c39.6 39.1 72.5 71.1 73 71.3.4.2.8-24.8.8-55.5v-55.8l-72.3-72.3c-39.7-39.7-72.5-72.2-73-72.2-.4 0-.7 25.6-.7 56.8M172.9 581.1c-11.7 23.4-20.7 54.7-24.1 84.4-1.8 16.1-1.5 52 .6 69 4.2 33.3 12.6 66.3 24.6 96.5 3.4 8.4 9.4 21.6 10.5 22.8.7.8 29.4-7.4 48.5-13.8 41.7-13.8 76.5-31.1 105-52.1 18.2-13.4 38.6-32.9 36.4-34.8-.5-.4-8.2-7.6-17-15.9L341.3 722l-7.9 2.4c-39.3 11.8-78.6 36.3-115.3 72.1-7.9 7.7-14.1 13.1-13.7 12 11.3-29.2 17.3-59.4 18.3-92.5 1.1-37.3-4-72.3-16-109-4.5-13.9-3.7-12.9-19.5-25.8L177 573zM1399.7 650.8l-55.8 60.7.3 102 .2 102-2.7 13.9c-1.5 7.7-3.8 17.1-5.1 20.8l-2.2 6.8h74.1L1512 853.5l103.4-103.4-20.9-21.3c-11.6-11.7-47.1-47.7-78.9-80.1-31.9-32.3-58.4-58.7-59-58.6-.6 0-26.2 27.4-56.9 60.7M496.7 630.2c-14.8 17.9-20.2 23.4-32.2 32.4-29.4 22.1-62.3 37.3-94.1 43.4-18.9 3.6-18.3 1.8-4.4 14.9l12.1 11.3 124.4-.7c68.5-.4 124.5-1.1 124.5-1.4 0-.8-115.3-116.1-116.2-116.1-.3 0-6.7 7.3-14.1 16.2M2001.3 710.2c-21.9 33.1-37.9 71.4-46.2 110-4.2 19.4-5.2 29.3-5.8 52.9-.6 25.2.4 39.5 3.8 57.8 1.1 5.7 1.8 10.5 1.6 10.7s-2.7-3-5.6-7.1c-14.5-20.8-42.7-51.2-61.1-65.9-20.1-16.1-45.4-30.6-65.1-37.4-10.5-3.7-28.9-7.8-38.6-8.8-8.6-.8-8.5-1-4.7 9.8 15.7 43.6 60.3 89.4 121.4 124.5 22.8 13.1 66.5 33.5 67.9 31.6 33.2-47.1 53-95.3 61.4-149.3 1.6-10.8 2.1-18.2 2.1-37.5.1-27.6-1.3-38.8-7.4-63-3.9-15.3-12.7-39.6-14.6-40.2-.5-.2-4.7 5.2-9.1 11.9M1850.9 700c-9.9 2.9-14.7 14.2-10.3 23.7 5.4 11.2 22.8 12.5 29.2 2.1 8.5-13.8-3.7-30.4-18.9-25.8"/><path d="M240.8 720c-9.4 5-11.5 17.9-4.1 26.1 11 12.2 30.7 3.3 29.1-13.1-1.2-11.9-14.2-18.7-25-13M91.2 727.6c-9.6 25.3-14.5 48.1-16.2 75.3-3.4 57.2 12.9 118.3 46.7 175 8.4 14.2 20.9 32.1 22.4 32.1 1.7 0 23.1-10 37.4-17.4 75.8-39.6 128.2-90.4 146.4-141.9 4.3-12.3 4.4-12-3.1-11.2-32.6 3.6-67.2 19.2-99.2 44.9-21.1 16.9-46.7 45.2-63.8 70.5-3.9 5.8-6.8 9.7-6.5 8.6 1.6-5.1 3.8-22.6 4.9-38.2 4-57.8-11.9-120-44.6-175.1-6.4-10.8-16.2-25.1-19.6-28.6-1.7-1.8-1.9-1.6-4.8 6M400.5 752.9c2.8 2.7 34.9 32.2 71.4 65.5l66.4 60.6H755v-23.5l-53.8-53.8-53.7-53.7h-252zM2067.9 878.8c-20.3 20.7-37 43.5-51.8 70.7-23.8 43.6-36.1 91.1-36.1 139.4v13.3l-6.9-13.8c-30.7-62.2-74-107.8-121.1-127.7-10.2-4.3-25.8-9.2-26.7-8.4-.3.3.2 5 1.1 10.3 4.6 27.6 21.4 61.2 45.6 91.4 4.6 5.8 15.6 17.7 24.5 26.6 22.5 22.6 41.2 37.8 72 58.7l16 10.8 10.5-10.8c46.6-48.3 78.1-110.1 87.6-171.8 2.3-14.8 2.6-53.1.6-67-1.7-11.7-5.2-28.8-6.1-29.7-.4-.4-4.5 3.2-9.2 8"/><path d="M31.1 897.7c-4 15.7-6.2 44.6-5 66.5 3.3 61.5 29.1 121.7 75.8 177.3 9.2 10.9 27.5 29.5 29.1 29.5 2.6 0 34.6-23.4 53.5-39.1 13.6-11.4 39.3-37.1 49.7-49.9 21.9-27 36-51.4 44.7-77.6 3.8-11.4 8.1-32.7 6.8-34-.7-.8-14.8 3.9-25.1 8.3-31.2 13.3-62.8 40.9-89.2 77.9-11.2 15.7-29 48-35.2 63.8l-1.9 4.9-.6-19.4c-.3-10.7-1.3-24.1-2.2-29.9-7.7-50-27.5-95.9-59.4-138.4-11.2-14.9-27.3-33.1-34.9-39.4l-5.1-4.3zM557 900.3c1.4 1.3 15.9 14.2 32.2 28.5l29.7 26.2h72.7c68.8 0 72.6-.1 71.9-1.8-2.4-5.4-3.7-15.7-4.2-33.8l-.6-20.1-52.5-.6c-28.9-.4-74.8-.7-102.1-.7h-49.6zM584 1362v380h192.8c185.6 0 193 .1 201.2 1.9 18 4.1 41.7 14.6 59.9 26.6 4.7 3 8.6 5.5 8.8 5.5s.3-136.8.3-303.9v-303.9l-11.2-.7c-52.9-3.2-93-13.3-133-33.6-39.8-20.2-74-50.9-99.3-88.9-9-13.6-22.2-39.6-26.9-53l-3.4-9.5-94.6-.3-94.6-.2zm109.2-123.5c6.5 25.8 12.7 51.9 13.8 57.9 2.9 15.8 3.1 15.8 6-1.9 1.6-10.1 13.1-57.8 24.1-99.8l1-3.7h18c14.1 0 18 .3 17.7 1.2-.3.7-11.5 41-24.9 89.5l-24.4 88.3h-28.4l-2-6.8c-11.2-38.1-49.1-170.3-49.1-171.1s5.2-1.1 18.2-.9l18.2.3zM846 1207v16h-36v41h32v32h-32v42h36v32h-71v-179h71zm71.2-13.2c10.1 2.7 15.1 5.4 21.3 11.3 9.6 9 13.6 19.8 13.6 36.4 0 6.1-.6 12.3-1.6 15.9-3.1 11.7-10.4 22.1-19.7 28.4-2.1 1.3-3.8 2.7-3.8 3 0 .6 30 79.4 30.7 80.4.2.5-7.8.8-17.9.8h-18.3l-15.5-41.5c-8.5-22.8-15.8-41.5-16.2-41.5-.5 0-.8 18.7-.8 41.5v41.5h-35v-179.2l27.8.4c24.2.4 28.7.7 35.4 2.6m83.8 86.7v89.5h-35v-179h35zm-30 131.6 8.5 3.4.3 16.8.2 16.7-4.1-2.9c-9.7-7.1-23.6-9.2-31.3-4.8-5.3 3-7.6 7.6-7.6 15.5 0 11.3 3.6 16.3 21.7 29.8 6.2 4.7 14.1 11.3 17.4 14.7 16.1 16.5 19.2 41.1 8.2 64.5-5.8 12.4-17.6 22-31.3 25.3-12.4 3-28.4 1-39.2-4.8l-4.8-2.6V1551l3.8 2.5c9.7 6.4 25.2 8.6 33.1 4.5 10.7-5.4 14.2-18.4 7.7-29.4-2-3.5-5.7-6.7-15.9-14-27-19.1-34.7-31.2-34.7-54.6 0-19.3 6.6-34.1 19.9-44 8.2-6.1 15.4-8.1 28.6-7.7 9.8.3 12 .7 19.5 3.8M762 1427v16h-29v147h-34v-147h-28v-32h91zm106.8 72.2c11.7 48.6 21.2 88.9 21.2 89.5 0 1-4.3 1.3-18 1.3h-18l-.7-2.8c-.3-1.5-1.8-8.1-3.3-14.7l-2.6-12-18.6-.3c-14.3-.2-18.7 0-19 1-.3.7-1.8 7.5-3.4 15l-2.8 13.8h-17.3c-13.4 0-17.1-.3-16.8-1.3.3-.6 9.5-40.1 20.5-87.7s20.3-87.3 20.6-88.3c.5-1.5 2.3-1.7 18.8-1.7h18.2z"/><path d="M889 1243.3v24.7l2.7.6c3.6.9 13.7-1.1 17.7-3.5 1.8-1.1 4.6-4.4 6.2-7.3 2.6-4.8 2.9-6.2 2.9-14.8 0-8.5-.3-10-2.7-14-3.7-6.4-8.9-9.1-18.9-9.7l-7.9-.6zM827 1456.9c0 1.7-4.9 34.3-8 53.4-1.6 10.3-3 19.4-3 20.2 0 1.2 2.2 1.5 13.1 1.5 13.1 0 13.1 0 12.6-2.3-2.7-11.1-12.7-68.5-12.7-72.7 0-.6-.4-1-1-1-.5 0-1 .4-1 .9M1326.2 988.2c-3.2 9-14.7 31.6-22.2 43.6-39.4 63-96.4 105.7-163.8 122.6-17.9 4.5-37.7 7.4-55.4 8.3l-13.8.6v306.4c0 168.4.3 306.3.6 306.3.4 0 2.3-1.5 4.3-3.3 10.5-9.5 29.3-20.3 43.9-25.1 17.6-5.9 6-5.6 218.8-5.6H1534V982h-205.5zM1153 1265.5v73.5h37v32h-72v-179h35zm99-10.3c0 64.2.5 74.6 3.8 80.1 3.3 5.6 6.5 7.2 15.1 7.2 9.1 0 12-1.4 15.3-7.8l2.3-4.2.3-69.3.3-69.2h34l-.3 74.7-.3 74.8-2.3 5.8c-4.8 11.8-13.9 20-26.7 24-6 1.9-9.3 2.2-22.5 2.2s-16.5-.3-22.5-2.2c-13.1-4.1-23.1-13.4-27.7-25.8-2.3-6-2.3-6.1-2.6-79.8l-.3-73.7h34.1zm147.7-44.7c4 9.9 8.2 21.7 9.4 26.2 1.2 4.6 2.5 8.3 2.9 8.3s1.2-2.5 1.9-5.6c1.9-8.3 5.4-18.2 11.8-33.6l5.8-13.8h18.3c10 0 18.2.4 18.2.8s-8.3 19.6-18.5 42.6c-10.2 23.1-18.5 42.6-18.5 43.6 0 .9 9 21.8 20 46.4 11 24.7 20 45 20 45.2s-8.9.4-19.8.4h-19.9l-6.6-16.8c-3.6-9.2-7.9-21.4-9.5-27.2-1.6-5.7-3.3-10.5-3.8-10.7s-2.1 4.3-3.7 10c-1.5 5.6-5.5 18-9 27.4l-6.2 17.3h-19.4c-16.3 0-19.2-.2-18.8-1.4.3-.8 8.7-21.2 18.6-45.4 10-24.2 18.1-44.6 18.1-45.3s-8.1-19.8-17.9-42.4c-9.9-22.5-18.3-41.8-18.7-42.8-.6-1.6.6-1.7 18.7-1.5l19.4.3zm-229.4 203.2c.3 1 4.2 24.7 8.8 52.8 4.5 28 8.4 51.2 8.6 51.4.1.2.5.2.8-.1.5-.5 14.5-101.5 14.5-104.6 0-.9 5.4-1.2 23.5-1.2h23.4l.6 3.2c.3 1.8 4.3 40.2 9 85.3s8.8 83.9 9.1 86.2l.6 4.3h-35.8l-3.7-58.3c-4.4-66.9-4.8-71.7-5.6-71.7-.4 0-2.2 11.1-4 24.7-1.8 13.7-6.5 42.8-10.4 64.8l-7.2 40-13.2.3c-11.9.2-13.2.1-13.7-1.5-2.1-7.1-17.4-86.2-20.2-104.8-1.9-12.6-3.6-23.1-3.8-23.3-.7-.6-5.6 109.2-5.6 124.5v5.3h-37v-3.3c0-1.7 3.4-41.7 7.5-88.7s7.5-85.8 7.5-86.3c0-.4 10.3-.7 22.9-.7 21 0 23 .1 23.4 1.7M1362 1428v16h-36v40h32v33h-32v42h36v32h-71v-179h71zm114.8 72.8c11.7 48.8 21.2 89 21.2 89.5 0 .4-8.2.6-18.2.5l-18.2-.3-2.8-12.5c-1.5-6.9-3-13.5-3.3-14.8l-.5-2.2-18.7.2-18.7.3-3.1 14.7-3 14.8h-17.2c-13.4 0-17.1-.3-16.8-1.3.2-.6 9.5-40.4 20.5-88.2 11.1-47.9 20.3-87.6 20.5-88.3.3-.9 5-1.2 18.7-1.2h18.3z"/><path d="M1435 1457.3c0 1.2-4.5 31.7-7.5 51-2.1 13.1-3.6 24-3.3 24.3.3.2 6.1.3 13 .2l12.5-.3-4.7-25c-2.6-13.8-5.6-30.7-6.6-37.8-1-7-2.2-12.7-2.6-12.7s-.8.1-.8.3"/><path d="M1555 1374.2V1765h-201.4c-175.5 0-202.4.2-208.6 1.5-28.5 6-58.3 23.1-79.5 45.7l-7.5 7.9-8.7-9.1c-20-21-44.6-34.5-75.2-41.3-9.6-2.1-10.1-2.1-210.3-2.4L563 1767V990.5l-24.5 24.5-24.5 24.5V1820l223.3.2c250.4.3 226.5-.4 243.3 7.8 14.3 7 22.1 17.1 24.5 31.9l1.2 7.1h108.2l2.3-8.7c4.3-16.8 13-30.1 23.2-35.4l4.5-2.4 227.8-.3 227.7-.2v-789.3l-14.7-15.5c-8.2-8.5-18.3-19.1-22.5-23.6l-7.7-8.1zM1955.9 999c-4.6 1.3-7.8 4.1-9.9 8.4-5.4 11.3 1.2 23.4 13.5 24.4 15.6 1.3 24.3-16.3 13.8-27.9-4.7-5.1-10.9-6.9-17.4-4.9M144.5 1021.4c-3.7 1.6-8.3 6.8-9.1 10.2-1.1 4.4.2 12 2.6 15.4 2.6 3.6 9 6.9 13.5 7 4.5 0 11.6-4 14.2-7.9 1.7-2.5 2.3-4.8 2.3-9.1 0-6.2-2.2-10.6-7.2-14.3-3.4-2.6-12.1-3.3-16.3-1.3M2098.8 1060.7c-57.7 43.4-99.1 103.7-115.1 167.8-1.9 7.7-4.3 18.9-5.3 24.9l-1.7 10.9-2.4-8.9c-17.8-67.5-55-125.3-99.1-153.8-8.2-5.4-22-12.6-23.9-12.6-1.8 0-1.7 20.9.2 32.5 6.9 43 31.5 91.2 69.4 135.9 12.5 14.8 29.2 32.5 41 43.4l11.1 10.4 9.8-7c32.9-23.6 63.2-55.1 85.8-89.3 21.4-32.3 34.9-65.9 41.6-103.4 2.6-14.6 3.8-59.5 1.6-59.5-.7 0-6.6 3.9-13 8.7M.4 1080.8c-1 6.5 1.1 37.3 3.6 51.2 7.6 43.9 27.7 86.9 58.6 125.5 11 13.7 36.5 39.4 50.5 50.8 12.4 10.1 31.6 23.7 33.4 23.7 1.6 0 26.6-25.8 39.2-40.4 42.4-49.3 68.7-99 76.8-145.1 1.8-10 2.7-37.6 1.3-39-.9-.9-13.7 6-23.6 12.7-43.6 29.4-77.7 84.1-95.5 153.3l-3.4 12.9-.6-5c-1-8.8-5.7-28.5-9.9-41.3-14.2-43.9-38.3-83-72.9-118.2-15.4-15.7-35.8-32.5-51.1-42.3l-5.7-3.6zM1613 1152v44h70v-88h-70zM425 1159v44h70v-88h-70z"/><path d="M1850.6 1228.6c-1.8 4.8-3.6 21.6-3.6 34.4.1 56.3 24.5 118.8 72.7 186.2 14 19.6 12.8 18.7 20.5 15.4 19-8.2 50.3-27.8 71.8-45 14.7-11.8 36.3-33.2 47.2-46.6 31.1-38.6 51.3-85.5 56.4-130.8l.7-6.2-3.9 1.6c-13.8 5.8-37.4 19.3-52.4 30-53.3 38-90.8 86.4-110.5 142.7l-4.2 11.9-1.2-12.7c-7.4-76.1-37.8-141.1-81.8-174.8-9.9-7.5-10.9-8.1-11.7-6.1M258.8 1250.8c-8.8 6.6-23.2 21.2-30.7 31-28.9 38.3-45.1 86.7-50.9 152.2l-.7 8.4-3.8-10.4c-2.1-5.8-7.1-17.3-11.2-25.5-24.3-49.4-65.2-93-116.4-123.9-10.2-6.2-30.3-16.5-38.3-19.7l-5.1-2 .7 6.3c1 9.3 5.3 27.8 9.2 40.1 9 27.9 21.4 51.4 40.1 76.6 10.9 14.6 40.6 44.4 56.3 56.5 21.9 16.8 47.4 32.4 70 42.5 9.2 4.2 11.6 4.9 12.6 3.9 2.8-3.1 19.1-27.1 27.1-40.2 38.2-62.1 57.3-124.5 53.3-173.8-1-12.1-3.5-25.4-5-26.3-.4-.3-3.7 1.6-7.2 4.3"/><path d="M1948 1319.2c-5.8 4-7.5 7.2-7.5 14.3s1.7 10.3 7.6 14.3c2.9 2 4.4 2.3 9.6 2q6.3-.45 9-2.4c3.5-2.5 7.3-9.8 7.3-13.9 0-4.5-4-11.6-7.9-14.2-4.7-3.2-13.5-3.2-18.1-.1M157.5 1338.5c-18.5 6.7-12.4 33.9 7.2 32.3 8.9-.8 14.3-6.2 15.1-15.1 1-12.7-10.5-21.6-22.3-17.2M1826.1 1368.3c-3.4 7.8-6.8 19.8-8.7 30.2-2.9 15.8-2.7 57 .4 76.5 6.3 38.8 19.9 79.9 41.3 123.8 6.4 13.1 8.3 16.2 9.7 15.9 18.4-5.1 26.7-7.7 37.1-11.7 77.2-29.2 135.9-79.6 166-142.5 7.3-15.2 16.2-39.8 14.8-41.1-1-1-24.7 6.1-39.1 11.7-68 26.7-122.9 73.1-155.1 131.1-2.7 4.8-5 8.6-5.2 8.4s.1-5.4.7-11.7c3.3-38-1.5-84.7-12.1-117.3-9.4-28.8-25.5-56.2-42.8-73l-5-4.9zM285.1 1389.6c-23.1 24.7-39.3 62.2-46.3 106.9-3.5 22.5-3.6 77.8-.1 93.5.3 1.4-1.8-1.6-4.7-6.5-12.5-21.4-25.2-37.8-43.9-56.6-14.5-14.4-23-21.7-38.1-32.4-31.7-22.4-74-41.7-109.8-50-3.5-.8-6.5-1.5-6.8-1.5-2.2 0 7.6 25.4 16.5 42.6 23.3 44.9 58.5 80.5 108.5 109.9 25.8 15.1 64.5 30.6 92 36.8l6.8 1.6 5.8-12.3c36.3-76.3 49.9-148.3 39-205-2.1-10.8-6.4-24.6-9.7-31l-1.9-3.8z"/><path d="M1778 1499.9c-21.3 33.4-29.9 87.5-23.4 148.1 2.8 26.3 10.9 65 19.2 91.4l2.8 9 5.9-.3c19.5-.7 55.4-8.1 81.1-16.6 64.2-21.2 115.1-58.6 147.6-108.5 7.7-11.8 16.3-27.9 15.4-28.8-1.2-1.1-25.4 1.9-41.7 5.2-71.4 14.6-133.3 50.7-174.1 101.5-3.4 4.2-6.4 7.9-6.8 8.4-.4.4.8-5 2.7-12 7.7-30 10.8-57.4 10-90.1-.8-36.9-7-63.6-20.7-89.8-5.1-10-13-22.4-14.1-22.4-.4 0-2.1 2.2-3.9 4.9M337.2 1518.3c-13.3 21.1-22.3 47-26.4 75.7-1.9 13.9-1.6 54.1.5 70 2.3 16.4 7 39.5 10.7 51.7 1.6 5.4 2.7 9.9 2.6 10-.1.2-3.5-3.4-7.4-8-41.1-47.9-101-81.8-169.2-95.6-18-3.6-49-6.8-49-5 0 1.6 8.9 16.9 16.1 27.4 39.5 58.2 104.5 98.3 185.4 114.4 15.9 3.2 38.5 6.1 47.2 6.1h5.2l2-6.8c6.6-21.9 13.2-54.4 16.7-81.7 2.3-17.6 2.6-65.8.6-80.5-3.3-23.4-9.4-45.9-16.7-61.7-4.1-8.8-12.2-22.3-13.5-22.3-.4 0-2.6 2.8-4.8 6.3M427 1572v44h70v-88h-70zM1616 1580v44h70v-88h-70z"/><path d="M1838.5 1614.5c-15.9 5.6-13 30.3 3.8 32.2 19.4 2.2 27-23.8 9.3-31.8-4.9-2.2-7.7-2.3-13.1-.4M1710.3 1621.2c-4.1 5.8-8.7 15.2-10.7 21.7l-1.6 5.4 7.9 8.6c4.4 4.7 12.5 13.1 18.1 18.6l10.1 10-.6-6c-1.3-10.9-4.5-26.4-7.6-35.8-3.1-9.5-10.7-26.7-11.9-26.7-.4 0-2 1.9-3.7 4.2M411.1 1634.7c-1 2.1-3.3 7.9-5 13-9.9 28.9-11.8 63.7-5.5 100.8 4.6 27.6 15.9 61.5 28.9 87.6 2.6 5 4 8.7 3.3 8.3-.7-.5-5.1-3.9-9.8-7.8-44.1-36.1-101.7-57.7-167-62.7-20.4-1.5-61.3 0-63.7 2.5-1.4 1.4 21 26.1 33.5 36.9 44.3 38.4 97.5 60.1 163.7 66.8 15.4 1.5 53.9 1.5 67.5-.1 5.8-.6 10.6-1.3 10.7-1.4.7-.7 2.4-21.2 3.4-41.2 1.8-35.2-.5-70.5-6.6-100.9-7.9-39.5-22.7-73.2-42.5-97.1-7.5-9-8.5-9.4-10.9-4.7M275.5 1633.4c-11.2 5-13.5 19.8-4.5 28 8.2 7.4 20.9 5.2 26.2-4.4 2.6-4.8 2.1-13.4-1.2-17.9-4.2-6.1-13.8-8.7-20.5-5.7M1616 1713.2v44.3l195.7 162.2 195.6 162.3h39.4c25.5 0 39.3-.3 39.1-1-.1-.5-89.6-93.4-198.8-206.4l-198.5-205.5h-36.2l-36.3-.1zM488.7 1684l-8.9 10 2.1 6.2c5 15.5 8.9 36.3 11.6 62.3 2.2 21.4 2.5 23.5 3.4 23.5.5 0 1.1-1 1.5-2.3.9-3.2.7-109.7-.1-109.7-.5.1-4.8 4.6-9.6 10M1889.5 1750.7c-10.4.9-34.1 4.6-44 6.8-14 3.1-32.5 8.5-32.5 9.5 0 1.2 53.3 56 54.5 56 1.8 0 18.2-11.6 29.2-20.7 5.4-4.5 13.7-12.2 18.4-17 13.5-14.1 27.9-32.6 26.5-34-.8-.8-44.8-1.3-52.1-.6M1666.5 1825.2c1.2 11.5 4.5 37 5.1 39.3.3 1.3 1.5 2.6 2.7 2.9 3.3.9 49.5.7 50.1-.2.3-.6-49.3-41.9-56.6-47-1.9-1.3-1.9-1.2-1.3 5"/><path d="M1552 1838c-5.9 20-10.3 40.5-13.4 62.5-2.3 16-4.6 41.6-4.6 51.1v8.2l12.8 3.1c15.5 3.7 25.7 5.5 42.7 7.8 18.4 2.4 64.1 2.4 81.5 0 32.8-4.6 61.1-13 86.8-25.7 14.5-7.2 36.3-20.4 36.1-21.9 0-.3-9.9-8.5-22-18.1l-21.9-17.5-8.8-.6c-12.2-.9-42 .7-58.1 3.2-35.8 5.4-72.7 18.5-101.9 36.1l-9.2 5.6 5.4-7.6c17.3-24.8 32-53.7 41.1-80.8 2-5.8 3.4-10.8 3.3-10.9-.2-.2-15.5-.5-34.1-.7l-33.8-.3z"/><path d="M1489.6 1834c-4.7.6-5.5 1.2-14.6 10.6-37.6 39.4-65 94.9-83.1 168.3-2.3 9.3-3.6 16.8-3.1 17.3 1.8 1.8 27 12.1 41.4 16.9 39.3 13.1 76.5 18.8 115.7 17.6 33.4-1 59.6-6.3 89.1-17.9 15.6-6.1 47-23.4 47-25.8 0-1.7-24.1-11.7-43-17.8-36.2-11.7-65.1-15.8-105.4-14.9-20.9.4-27.6.9-39.7 3-20.9 3.7-37.3 8.2-55.2 15l-6.8 2.7 10-10.8c26.5-28.5 45-54.8 58.7-83.7 9.9-20.8 17.5-47.3 18.9-65.5.3-4.1.8-9.4 1-11.8l.5-4.2-13.3.1c-7.2.1-15.4.5-18.1.9M507.2 1839.7c7.2 26.4 31.2 72.9 51.7 100l3.2 4.2-9.8-5.7c-62-35.6-145.5-45.8-221.3-26.8-14.8 3.7-19 5.1-19 6.4s17.9 15.8 28.3 23c36.4 25.1 78.9 39.8 128 44.3 16.2 1.5 54.7.7 71.7-1.5 22.1-2.9 57.6-10.9 60.4-13.6 1-1-1.5-29.3-4-46.5-3.7-25.6-11.7-58.5-19.1-79l-3-8-34-.3-34.1-.2z"/><path d="M611 1842.4c0 9.3 2.6 27.9 5.4 38.7 11 42.3 36.6 84.4 74.6 123.2 7.5 7.6 12.9 13.5 12 13.1-13.9-5.7-41.8-13.1-60.5-16-14.9-2.4-65.3-2.7-80-.6-25.9 3.7-53 10.6-75 18.9-14.1 5.4-31.9 13.6-32.9 15.1-.9 1.4 5.4 5.4 21.4 13.6 35.7 18.3 67.9 26.2 110.5 27.3 45.8 1.1 89.8-7.4 135.2-26 9.3-3.8 24.9-11.1 26.1-12.2.7-.6-7.8-31.6-12.6-46.1-7.5-22.9-14.6-40.1-25.3-61.4-18.4-36.7-40.1-65.6-64.8-86.2l-9.4-7.8H611zM1628.8 1857c-7 3.8-10.3 12.8-7.3 20.5 7 18.5 33.9 12.5 32.3-7.2-.8-9.1-6.3-14.5-15.5-15-4.4-.2-6.7.2-9.5 1.7M488.5 1870.4c-1.7.7-4.4 2.9-6.2 4.9-6 6.8-5.3 16.8 1.6 23 11.7 10.5 29.2 1.8 27.9-13.8-.5-6.5-3.7-11.1-9.2-13.6-4.8-2.2-9.9-2.4-14.1-.5M219 1979.6c-96.5 101.7-95.1 100.1-98.5 113.1-4 15.4.5 30.2 10.8 35.2 9.9 4.8 22 4.6 33.1-.6 4.7-2.2 24.9-19.3 95-80.6 49-42.8 89.1-78.2 89.1-78.7s-3.8-3.4-8.5-6.5c-10.1-6.8-23.8-17.7-33.7-26.9-6.6-6.2-16.3-17.8-16.3-19.6 0-1 14.4-7.5 25.5-11.5 8.8-3.2 20.1-6.2 31.8-8.5 3.2-.7 5.7-1.3 5.5-1.5s-9.1-2.5-19.8-5-20.2-4.7-21-5c-1-.2-34.4 34.3-93 96.1M1389.5 1885.5c-9.1 3.2-22.6 10.2-32.2 16.6-45.5 30.4-85.5 82.9-116.6 153-8.3 18.7-8.3 18.7-6 20.5 4.7 3.6 19.4 13.1 27.2 17.6 78.6 45.5 163.3 57.5 236.6 33.3 7.2-2.3 15.9-5.6 19.5-7.2l6.5-2.9-6.4-4.7c-13.8-10.2-41-25.1-60.8-33.3-23.6-9.8-49.7-17.1-75.4-20.9-28.8-4.3-67.6-3.5-94.2 2.1-3.8.8-7.3 1.4-7.9 1.4s2.7-2.7 7.3-6c56.1-39.9 95.1-91 107.9-141 1.7-6.6 4.9-25.9 5-30.3 0-1.3-3.3-.7-10.5 1.8"/><path d="M733 1892.6c0 4.1 2.9 19.5 5.4 28.6 9.3 34.2 28.7 65.1 61 97.3 17.2 17.1 29.9 27.7 48.8 40.7 7.8 5.3 9.6 6.9 7.2 6.5-19.6-3.6-27-4.2-52.4-4.2-27.8 0-35.5.7-57.8 5.1-42.5 8.6-89.4 29.1-123.7 54.4-4.1 3-7.5 5.8-7.5 6.1 0 .4.8.9 1.8 1.2.9.3 6.8 2.4 13 4.6 24.3 8.8 47 13 74.8 13.8 48.9 1.5 93.4-8.8 142.9-33.2 26.1-12.8 57.4-32.7 57.5-36.5 0-2-20.3-43.1-27.5-55.5-7.4-12.8-21.1-33.7-28.8-44-20.1-26.5-44.7-50.6-67-65.5-14.6-9.7-34.6-19.2-43.7-20.6-3.5-.6-4-.4-4 1.2"/><path d="M1251.6 1944.6c-31 6.1-63 25.7-96.1 58.9-22 21.9-39.3 43.4-59.2 73.4l-10.3 15.4V2046h-42l-.2 19.7-.3 19.6-4.9-7.4c-2.7-4.1-9.3-13.3-14.6-20.4-46.7-62.9-96.8-102.5-140.2-110.9-11.7-2.3-15.8-2.7-15.8-1.6 0 2.1 5.2 14.5 10.1 24.1 11.8 23 30.1 47.2 51 67.4 23.4 22.7 46.9 39.2 78.1 55.2 10.6 5.4 11.1 5.8 7.8 6.1-19.8 1.6-58.5 9.1-81.5 15.7-44.3 12.7-84.2 32.7-109.7 54.9-8.2 7.2-22.8 23-22.8 24.7 0 2.6 33.5 1.6 57.3-1.7 67.1-9.3 132.6-39.9 178-83.3l7.7-7.4v66.30000000000001h42v-70.2l8.8 8.3c50.1 47.5 118 78.1 190.7 85.8 22.1 2.4 48.5 2.5 48.5.3 0-.4-3.1-4.3-6.9-8.6-31.8-36.2-86.5-63.1-158.1-77.6-15.1-3.1-46.8-8-51.8-8-.4 0 5.4-3.3 12.8-7.3 49.3-26.7 83.9-57.3 111-98 10.6-15.9 24-42.5 24-47.7 0-1.3-5-1.1-13.4.6M1353.5 2012.4c-3.7 1.6-8.3 6.8-9.1 10.2-1.1 4.1.2 12.4 2.3 15.2 2.4 3.4 9.8 7.2 13.8 7.2s11.4-3.8 13.8-7.1c5.5-7.6 3.5-18.2-4.6-24.3-3.3-2.5-12.1-3.2-16.2-1.2M769.5 2018.8c-17.5 8.4-11.1 33.6 8.2 32 8.9-.8 14.3-6.2 15.1-15.1 1.1-13.1-11.7-22.4-23.3-16.9"/></svg>